<svg width="53" height="43" viewBox="0 0 53 43" fill="none" xmlns="http://www.w3.org/2000/svg">
<path d="M0 28.0784C0 27.5053 0.216326 26.9781 0.648979 26.4968C1.1249 26.0613 1.64408 25.8321 2.16327 25.8321H7.20367C7.78775 25.8321 8.26367 26.0613 8.65306 26.4968C9.04245 26.9323 9.23714 27.4824 9.23714 28.0784C9.23714 28.7431 9.04245 29.2932 8.65306 29.7287C8.26367 30.1642 7.76612 30.3934 7.20367 30.3934H2.16327C1.57918 30.3934 1.08163 30.1642 0.648979 29.7058C0.216326 29.2244 0 28.6743 0 28.0784ZM7.20367 9.78731C7.20367 9.16844 7.39837 8.64126 7.76612 8.22868C8.26367 7.77025 8.76122 7.54104 9.30204 7.54104C9.86449 7.54104 10.362 7.77026 10.7731 8.20576L14.3208 11.9877C14.7318 12.492 14.9265 13.0192 14.9265 13.5693C14.9265 14.2111 14.7318 14.7612 14.3424 15.1738C13.9531 15.5864 13.4771 15.8156 12.9147 15.8156C12.3955 15.8156 11.8763 15.5864 11.4004 15.1509L7.76612 11.4606C7.39837 10.9792 7.20367 10.4062 7.20367 9.78731ZM11.5302 40.7308C11.5302 40.089 11.7465 39.5618 12.1576 39.1722C12.5469 38.7825 13.0229 38.5762 13.6286 38.5762H19.318L26.0457 31.8833C26.262 31.6999 26.5 31.6999 26.7812 31.8833L33.6171 38.5762H39.6094C40.1935 38.5762 40.691 38.7825 41.102 39.218C41.5131 39.6306 41.7294 40.1578 41.7294 40.7537C41.7294 41.3726 41.5131 41.8998 41.102 42.3353C40.691 42.7708 40.1935 43 39.6094 43H32.2976C32.0812 43 31.8649 42.9542 31.6702 42.8395L26.4567 37.6365L21.2865 42.8395C21.1135 42.9542 20.9188 43 20.6808 43H13.6286C13.0445 43 12.5469 42.7708 12.1359 42.3353C11.7249 41.8769 11.5302 41.3497 11.5302 40.7308ZM13.5204 28.0784C13.5204 30.3017 13.9747 32.3188 14.8616 34.1295C14.9049 34.4046 15.0996 34.5421 15.4024 34.5421H19.4694C19.6208 34.5421 19.729 34.4733 19.7939 34.3587C19.8588 34.2212 19.8371 34.0837 19.7506 33.9232C18.3661 32.1583 17.6739 30.21 17.6739 28.0784C17.6739 25.5112 18.5392 23.3108 20.2698 21.5C22.0004 19.6892 24.0771 18.7953 26.5216 18.7953C28.9445 18.7953 30.9996 19.6892 32.7086 21.5C34.4176 23.3108 35.2829 25.4883 35.2829 28.0784C35.2829 30.2329 34.5906 32.1812 33.2278 33.9232C33.1412 34.0837 33.1196 34.2212 33.1629 34.3587C33.2061 34.4963 33.3143 34.5421 33.4873 34.5421H37.5975C37.8788 34.5421 38.0518 34.4046 38.0951 34.1295C39.0469 32.3646 39.4796 30.3475 39.4796 28.0784C39.4796 26.2217 39.1335 24.4339 38.4412 22.7607C37.749 21.0645 36.8188 19.6205 35.6722 18.3827C34.5257 17.1679 33.1412 16.1823 31.5404 15.4488C29.9396 14.7154 28.2739 14.3715 26.5216 14.3715C24.7694 14.3715 23.082 14.7383 21.4812 15.4488C19.8804 16.1823 18.4959 17.145 17.3278 18.3827C16.1596 19.5975 15.2294 21.0645 14.5371 22.7607C13.8665 24.4339 13.5204 26.1988 13.5204 28.0784ZM24.4016 7.54104V2.26919C24.4016 1.60448 24.5963 1.07729 25.0073 0.641791C25.4184 0.20629 25.9375 0 26.5433 0C27.149 0 27.6465 0.20629 28.0576 0.641791C28.4686 1.07729 28.6633 1.65032 28.6633 2.29211V7.56397C28.6633 8.22868 28.4686 8.75586 28.0576 9.19136C27.6682 9.60394 27.149 9.83315 26.5433 9.83315C25.9159 9.83315 25.4184 9.62687 25.0073 9.19136C24.5963 8.75586 24.4016 8.20576 24.4016 7.54104ZM38.1384 13.5922C38.1384 13.0192 38.3331 12.492 38.7224 12.0107L42.2269 8.22868C42.638 7.79318 43.1571 7.56397 43.7412 7.56397C44.3253 7.56397 44.8445 7.79318 45.2339 8.22868C45.6449 8.66418 45.8396 9.19136 45.8396 9.81023C45.8396 10.4749 45.6449 11.0251 45.2771 11.4835L41.6429 15.1738C41.1886 15.6093 40.6694 15.8385 40.1286 15.8385C39.5445 15.8385 39.0686 15.6322 38.7008 15.1967C38.3331 14.7612 38.1384 14.234 38.1384 13.5922ZM43.7845 28.0784C43.7845 27.4595 43.9792 26.9323 44.3686 26.4968C44.758 26.0613 45.2339 25.8321 45.7963 25.8321H50.88C51.4641 25.8321 51.9616 26.0613 52.3727 26.4968C52.7837 26.9323 53 27.4824 53 28.0784C53 28.7201 52.7837 29.2473 52.3727 29.7058C51.9616 30.1642 51.4641 30.3934 50.88 30.3934H45.7963C45.2122 30.3934 44.7363 30.1642 44.3469 29.7287C43.9792 29.2703 43.7845 28.7201 43.7845 28.0784Z" fill="url(#paint0_linear_26_361)"/>
<defs>
<linearGradient id="paint0_linear_26_361" x1="26.5" y1="0" x2="26.5" y2="43" gradientUnits="userSpaceOnUse">
<stop stop-color="#FFDD55"/>
<stop offset="0.9999" stop-color="#FF8C42"/>
<stop offset="1" stop-color="#D9463E"/>
</linearGradient>
</defs>
</svg>
