<svg width="53" height="43" viewBox="0 0 53 43" fill="none" xmlns="http://www.w3.org/2000/svg">
<path d="M0 24.3334C0 23.7712 0.218557 23.3295 0.65567 22.9681C1.02722 22.6067 1.5299 22.4461 2.14186 22.4461H7.19052C7.78062 22.4461 8.26144 22.6268 8.65485 22.9882C9.02639 23.3496 9.22309 23.7913 9.22309 24.3334C9.22309 24.8955 9.02639 25.3774 8.63299 25.7588C8.23959 26.1403 7.75876 26.3411 7.19052 26.3411H2.16371C1.57361 26.3411 1.07093 26.1403 0.65567 25.7388C0.218557 25.3372 0 24.8755 0 24.3334ZM7.19052 8.55282C7.19052 7.99066 7.36536 7.52889 7.73691 7.18758C8.17402 6.78604 8.6767 6.58527 9.2668 6.58527C9.90062 6.58527 10.3814 6.78604 10.753 7.18758L14.2936 10.4601C15.299 11.3435 15.299 12.247 14.2936 13.1705C13.8783 13.552 13.4194 13.7327 12.873 13.7327C12.3922 13.7327 11.9113 13.552 11.3868 13.1705L7.75876 9.91806C7.38722 9.55667 7.19052 9.0949 7.19052 8.55282ZM11.4961 35.2151C11.4961 34.6931 11.7146 34.2313 12.1518 33.8298C12.5452 33.4684 13.0478 33.2877 13.6379 33.2877H20.6755C20.9159 33.2877 21.1126 33.3279 21.2874 33.4483L26.4235 37.9054L31.647 33.4283C31.8 33.3279 32.0186 33.2677 32.2808 33.2677H39.4932C40.0833 33.2677 40.586 33.4483 41.0012 33.8298C41.4165 34.2113 41.635 34.673 41.635 35.195C41.635 35.7371 41.4165 36.1989 41.0012 36.5804C40.586 36.9618 40.0833 37.1626 39.4932 37.1626H33.6359L26.7732 42.8645C26.5109 43.0452 26.2705 43.0452 26.052 42.8645L19.3204 37.1626H13.6379C13.0478 37.1626 12.5452 36.9618 12.1299 36.5804C11.7146 36.219 11.4961 35.7572 11.4961 35.2151ZM13.5505 24.3334C13.5505 26.321 13.9658 28.0878 14.8181 29.5936C14.9493 29.8144 15.146 29.9148 15.4082 29.9148H19.4953C19.6701 29.9148 19.7794 29.8746 19.8231 29.7742C19.8668 29.6739 19.8012 29.5534 19.6701 29.4129C18.3806 27.9272 17.7249 26.2206 17.7249 24.3334C17.7249 22.1249 18.5773 20.2377 20.3039 18.6917C22.0305 17.1458 24.1068 16.3628 26.5328 16.3628C28.9369 16.3628 30.9913 17.1458 32.7179 18.6917C34.4227 20.2577 35.2969 22.1249 35.2969 24.3133C35.2969 26.2005 34.6412 27.9071 33.3517 29.3928C33.1988 29.5333 33.155 29.6538 33.1988 29.7542C33.2425 29.8546 33.3517 29.8947 33.5266 29.8947H37.6355C37.9196 29.8947 38.0944 29.7943 38.16 29.5735C39.0561 28.0075 39.515 26.2407 39.515 24.3133C39.515 22.7272 39.1654 21.1813 38.4878 19.7157C37.8103 18.25 36.8705 16.9651 35.7122 15.901C34.5538 14.8369 33.1769 13.9937 31.5814 13.3512C29.986 12.7088 28.3031 12.4076 26.5546 12.4076C24.8062 12.4076 23.1233 12.7288 21.5278 13.3512C19.9324 13.9937 18.5555 14.8369 17.3971 15.901C16.2388 16.9651 15.3208 18.2299 14.6214 19.7157C13.9221 21.2014 13.5505 22.7473 13.5505 24.3334ZM24.3909 6.6455V1.96755C24.3909 1.42547 24.6095 0.963698 25.0247 0.582235C25.44 0.200771 25.9427 0 26.5328 0C27.1229 0 27.6256 0.200771 28.0408 0.582235C28.4561 0.963698 28.6746 1.42547 28.6746 1.96755V6.62542C28.6746 7.1675 28.4561 7.62927 28.0408 8.01074C27.6256 8.3922 27.1229 8.59297 26.5328 8.59297C25.9427 8.59297 25.44 8.3922 25.0247 8.01074C24.5876 7.62927 24.3909 7.18758 24.3909 6.6455ZM38.0944 11.8254C38.0944 11.2632 38.2911 10.8014 38.6627 10.4802L42.2252 7.20766C42.5748 6.80612 43.0775 6.60535 43.7113 6.60535C44.3014 6.60535 44.8041 6.80612 45.1975 7.18758C45.5909 7.56904 45.7876 8.03082 45.7876 8.5729C45.7876 9.13505 45.6128 9.59682 45.2412 9.93813L41.6132 13.2107C41.1105 13.5922 40.6078 13.7728 40.1051 13.7728C39.5369 13.7728 39.0561 13.5922 38.6627 13.2107C38.2911 12.8292 38.0944 12.3675 38.0944 11.8254ZM43.7551 24.3334C43.7551 23.7913 43.9517 23.3496 44.3233 22.9882C44.6948 22.6268 45.1975 22.4461 45.7876 22.4461H50.8581C51.4482 22.4461 51.9509 22.6268 52.3662 22.9882C52.7814 23.3496 53 23.7913 53 24.3334C53 24.8755 52.7814 25.3372 52.3662 25.7388C51.9509 26.1403 51.4482 26.3411 50.8581 26.3411H45.7876C45.2194 26.3411 44.7386 26.1403 44.3452 25.7588C43.9518 25.3774 43.7551 24.8955 43.7551 24.3334Z" fill="url(#paint0_linear_25_186)"/>
<defs>
<linearGradient id="paint0_linear_25_186" x1="26.5" y1="0" x2="26.5" y2="43" gradientUnits="userSpaceOnUse">
<stop stop-color="#FF5733"/>
<stop offset="0.5" stop-color="#FF8D33"/>
<stop offset="1" stop-color="#FFC300"/>
</linearGradient>
</defs>
</svg>
