<svg width="28" height="28" viewBox="0 0 28 28" fill="none" xmlns="http://www.w3.org/2000/svg">
<path d="M16.2 5.2V16.794C17.0388 17.2783 17.6944 18.0258 18.065 18.9207C18.4357 19.8156 18.5007 20.8077 18.2501 21.7433C17.9994 22.6789 17.447 23.5056 16.6785 24.0953C15.9101 24.6849 14.9686 25.0045 14 25.0045C13.0314 25.0045 12.0899 24.6849 11.3214 24.0953C10.553 23.5056 10.0006 22.6789 9.7499 21.7433C9.49921 20.8077 9.56424 19.8156 9.93491 18.9207C10.3056 18.0258 10.9612 17.2783 11.8 16.794V5.2C11.8 4.61652 12.0318 4.05695 12.4443 3.64436C12.8569 3.23178 13.4165 3 14 3C14.5835 3 15.143 3.23178 15.5556 3.64436C15.9682 4.05695 16.2 4.61652 16.2 5.2Z" stroke="#E30F0F" stroke-width="2.2" stroke-linecap="round" stroke-linejoin="round"/>
</svg>
