<svg width="28" height="28" viewBox="0 0 28 28" fill="none" xmlns="http://www.w3.org/2000/svg">
<path d="M3 7.39999C3.66 7.94999 4.32 8.49999 5.75 8.49999C8.5 8.49999 8.5 6.29999 11.25 6.29999C14.11 6.29999 13.89 8.49999 16.75 8.49999C19.5 8.49999 19.5 6.29999 22.25 6.29999C23.68 6.29999 24.34 6.84999 25 7.39999M3 14C3.66 14.55 4.32 15.1 5.75 15.1C8.5 15.1 8.5 12.9 11.25 12.9C14.11 12.9 13.89 15.1 16.75 15.1C19.5 15.1 19.5 12.9 22.25 12.9C23.68 12.9 24.34 13.45 25 14M3 20.6C3.66 21.15 4.32 21.7 5.75 21.7C8.5 21.7 8.5 19.5 11.25 19.5C14.11 19.5 13.89 21.7 16.75 21.7C19.5 21.7 19.5 19.5 22.25 19.5C23.68 19.5 24.34 20.05 25 20.6" stroke="#17B8CA" stroke-width="2.2" stroke-linecap="round" stroke-linejoin="round"/>
</svg>
