<svg width="22" height="18" viewBox="0 0 22 18" fill="none" xmlns="http://www.w3.org/2000/svg">
<path d="M11.8 16.6C12.0535 16.7901 12.3486 16.9173 12.6609 16.971C12.9732 17.0248 13.2938 17.0035 13.5963 16.909C13.8988 16.8145 14.1745 16.6495 14.4007 16.4276C14.6269 16.2056 14.7972 15.9331 14.8974 15.6325C14.9976 15.3318 15.0249 15.0117 14.9771 14.6984C14.9293 14.3851 14.8078 14.0877 14.6225 13.8306C14.4372 13.5735 14.1935 13.3641 13.9114 13.2197C13.6293 13.0753 13.3169 13 13 13H1M16.5 5C16.7557 4.65909 17.0943 4.38919 17.4836 4.21594C17.8729 4.04269 18.3001 3.97183 18.7245 4.0101C19.1489 4.04837 19.5565 4.1945 19.9086 4.4346C20.2606 4.6747 20.5455 5.00081 20.7361 5.38197C20.9266 5.76312 21.0166 6.18666 20.9975 6.61237C20.9783 7.03808 20.8507 7.45183 20.6266 7.81433C20.4026 8.17683 20.0896 8.47604 19.7174 8.68355C19.3452 8.89107 18.9261 9 18.5 9H1M8.8 1.4C9.05352 1.20986 9.3486 1.08268 9.66092 1.02895C9.97323 0.975226 10.2938 0.996483 10.5963 1.09097C10.8988 1.18546 11.1745 1.35048 11.4007 1.57243C11.6269 1.79438 11.7972 2.0669 11.8974 2.36754C11.9976 2.66819 12.0249 2.98834 11.9771 3.30162C11.9293 3.6149 11.8078 3.91233 11.6225 4.16942C11.4372 4.42651 11.1935 4.63588 10.9114 4.78029C10.6293 4.92469 10.3169 5 10 5H1" stroke="black" stroke-width="2" stroke-linecap="round" stroke-linejoin="round"/>
</svg>
